<?xml version="1.0" encoding="UTF-8" standalone="no"?>
<!-- Created with Inkscape (http://www.inkscape.org/) -->

<svg
   width="107.44616mm"
   height="70.899254mm"
   viewBox="0 0 107.44616 70.899254"
   version="1.1"
   id="svg1"
   xml:space="preserve"
   xmlns="http://www.w3.org/2000/svg"
   xmlns:svg="http://www.w3.org/2000/svg"><defs
     id="defs1" /><path
     style="display:inline;fill:#c19a29;fill-opacity:1;stroke-width:0.264583"
     d="M 77.72652,141.00586 53.831936,116.81487 C 53.000001,119 50.7167,126 51.404146,133.37222 l 15.367621,14.30254 z m 54.54695,0 23.89458,-24.19099 C 156.99999,119 159.28329,126 158.59584,133.37222 l -15.36762,14.30254 z"
     id="path27"
     transform="translate(-51.276914,-116.81489)" /><g
     id="layer3"
     style="display:inline;opacity:1;fill:#d4a120;fill-opacity:1"
     transform="matrix(0.93556511,0,0,0.9457817,-53.428064,-107.76582)"><path
       id="path22"
       style="display:inline;fill:#c19a29;fill-opacity:1;stroke-width:0.736393"
       d="m 77.40907,131.45016 c -2.491991,5.32617 -3.782864,11.12483 -3.783081,16.99378 -1.53e-4,22.34714 18.313489,40.4632 40.904671,40.46335 22.5914,1.6e-4 40.90538,-18.11599 40.90523,-40.46335 -9e-5,-5.82125 -1.26994,-11.57394 -3.72288,-16.86538 l -8.07488,8.08491 c 0.87723,2.84606 1.32304,5.80506 1.32289,8.78047 -7e-5,16.62465 -13.62417,30.10157 -30.43036,30.10164 -16.80598,-3.8e-4 -30.429732,-13.47721 -30.429806,-30.10164 2.9e-5,-3.02526 0.461087,-6.03323 1.367632,-8.92253 z" /></g></svg>
