<?xml version="1.0" encoding="UTF-8" standalone="no"?>
<!-- Created with Inkscape (http://www.inkscape.org/) -->

<svg
   width="107.44638mm"
   height="80.243675mm"
   viewBox="0 0 107.44638 80.243675"
   version="1.1"
   id="svg1"
   xml:space="preserve"
   xmlns:xlink="http://www.w3.org/1999/xlink"
   xmlns="http://www.w3.org/2000/svg"
   xmlns:svg="http://www.w3.org/2000/svg"><defs
     id="defs1"><linearGradient
       id="linearGradient9"><stop
         style="stop-color:#996734;stop-opacity:1;"
         offset="0"
         id="stop9" /><stop
         style="stop-color:#542f1f;stop-opacity:1;"
         offset="1"
         id="stop10" /></linearGradient><linearGradient
       id="linearGradient7"><stop
         style="stop-color:#d49c48;stop-opacity:1;"
         offset="0"
         id="stop7" /><stop
         style="stop-color:#9c5e28;stop-opacity:1;"
         offset="1"
         id="stop8" /></linearGradient><linearGradient
       id="linearGradient5"><stop
         style="stop-color:#f5db76;stop-opacity:1;"
         offset="0"
         id="stop5" /><stop
         style="stop-color:#9c6233;stop-opacity:1;"
         offset="1"
         id="stop6" /></linearGradient><linearGradient
       id="linearGradient3"><stop
         style="stop-color:#e9ebf2;stop-opacity:1;"
         offset="0"
         id="stop3" /><stop
         style="stop-color:#d1ffff;stop-opacity:1;"
         offset="1"
         id="stop4" /></linearGradient><linearGradient
       id="linearGradient1"><stop
         style="stop-color:#fad387;stop-opacity:1;"
         offset="0"
         id="stop1" /><stop
         style="stop-color:#c28e4f;stop-opacity:1;"
         offset="1"
         id="stop2" /></linearGradient><linearGradient
       xlink:href="#linearGradient1"
       id="linearGradient2"
       x1="105.07112"
       y1="131.22865"
       x2="105.07112"
       y2="185.07039"
       gradientUnits="userSpaceOnUse" /><linearGradient
       xlink:href="#linearGradient3"
       id="linearGradient4"
       x1="105.22513"
       y1="155.5152"
       x2="105.22513"
       y2="166.6153"
       gradientUnits="userSpaceOnUse" /><linearGradient
       xlink:href="#linearGradient5"
       id="linearGradient6"
       x1="105.00005"
       y1="98.541412"
       x2="105.00005"
       y2="205.98779"
       gradientUnits="userSpaceOnUse" /><linearGradient
       xlink:href="#linearGradient7"
       id="linearGradient8"
       x1="114.53099"
       y1="120.54703"
       x2="114.53099"
       y2="176.58182"
       gradientUnits="userSpaceOnUse" /><linearGradient
       xlink:href="#linearGradient9"
       id="linearGradient10"
       x1="105"
       y1="151.5"
       x2="105"
       y2="173.5"
       gradientUnits="userSpaceOnUse"
       gradientTransform="translate(-51.276859,-116.8151)" /><linearGradient
       xlink:href="#linearGradient1"
       id="linearGradient11"
       gradientUnits="userSpaceOnUse"
       x1="105.07112"
       y1="131.22865"
       x2="105.07112"
       y2="185.07039" /></defs><path
     style="display:inline;fill:#153866;fill-opacity:0.9;stroke-width:0.264583"
     d="M 73.099257,170.71728 68.000002,158 58.813271,151.26458 c 0.702347,4.73542 1.70235,9.27859 2.801572,11.38802 3.385158,3.74656 7.788568,6.3474 11.484414,8.06468 z m 63.801583,0 L 142.0001,158 l 9.18673,-6.73542 c -0.70235,4.73542 -1.70235,9.27859 -2.80157,11.38802 -3.38516,3.74656 -7.78857,6.3474 -11.48442,8.06468 z"
     id="path29"
     transform="translate(-51.276859,-116.8151)" /><path
     style="display:inline;opacity:1;fill:#153866;fill-opacity:1;stroke-width:0.281274"
     d="m 73.913777,145.85917 0.754744,12.07787 -12.512343,-9.96322 c -1.068873,-4.2293 -1.367046,-8.10487 -0.963211,-12.86201 z m 81.234433,0 -0.75475,12.07787 12.51235,-9.96322 c 1.06887,-4.2293 1.36704,-8.10487 0.96321,-12.86201 z"
     id="path28"
     transform="matrix(0.93556511,0,0,0.9457817,-53.428009,-107.76603)" /><g
     id="layer3"
     style="display:inline;opacity:1;fill:#d4a120;fill-opacity:1"
     transform="matrix(0.93556511,0,0,0.9457817,-53.428009,-107.76603)"><path
       id="path17"
       style="display:inline;fill:url(#linearGradient8);stroke-width:0.504384"
       d="m 114.53072,120.84968 a 28.017372,27.71472 0 0 0 -28.01712,27.71446 28.017372,27.71472 0 0 0 28.01712,27.71502 28.017372,27.71472 0 0 0 28.01767,-27.71502 28.017372,27.71472 0 0 0 -28.01767,-27.71446 z m 0,7.09649 a 20.843018,20.617865 0 0 1 20.84312,20.61797 20.843018,20.617865 0 0 1 -20.84312,20.61798 20.843018,20.617865 0 0 1 -20.842578,-20.61798 20.843018,20.617865 0 0 1 20.842578,-20.61797 z" /><path
       id="path27"
       style="display:inline;opacity:1;fill:url(#linearGradient6);fill-opacity:1;stroke-width:0.264583"
       d="m 53.831856,116.81509 c -0.831935,2.18513 -3.115205,9.1849 -2.427759,16.55712 l 15.367538,14.30249 c -0.02729,0.58889 -0.0408,1.17906 -0.04082,1.76992 -1.43e-4,21.13551 17.13346,38.26935 38.268985,38.26949 21.13573,1.5e-4 38.26964,-17.13377 38.26949,-38.26949 -1e-5,-0.59087 -0.0136,-1.18101 -0.0408,-1.76992 L 158.596,133.37221 c 0.68745,-7.37222 -1.59582,-14.37199 -2.42776,-16.55712 l -23.89466,24.19077 0.0568,0.0346 -0.0987,0.0997 c 0.82071,2.69176 1.23779,5.49032 1.23765,8.30441 -6e-5,15.72329 -12.74629,28.46951 -28.46958,28.46958 -15.723087,-3.6e-4 -28.468992,-12.7465 -28.469061,-28.46958 2.7e-5,-2.86124 0.431376,-5.70612 1.279508,-8.43876 l -7.540108,-7.63365 c -0.0089,0.0192 -0.018,0.0386 -0.02687,0.0579 z"
       transform="matrix(1.0688727,0,0,1.0573265,2.2993053,-9.5678148)" /></g><path
     style="display:inline;opacity:1;fill:url(#linearGradient10);fill-opacity:1;stroke-width:0.264583"
     d="m 42.723142,67.184892 2e-6,-49.99999 5.999997,4 5,-3 5,3 6,-4 v 49.99999 l -11,7 z"
     id="path44" /><g
     id="layer2"
     style="display:inline;opacity:1;fill:url(#linearGradient2)"
     transform="translate(-51.276859,-116.8151)"><path
       id="path12"
       style="fill:url(#linearGradient11);fill-opacity:1;stroke-width:0.499051"
       d="m 80.59198,119.24027 -2.441711,3.98838 c 0,0 9.575615,28.46973 10.515637,36.68562 0.980979,8.57385 -1.544609,13.59917 -1.544609,13.59917 3.422157,7.91208 7.399613,15.07787 13.341823,20.22357 v -23.97166 l -5.105633,-4.02301 -0.425814,-34.70693 z m 48.96084,0 -14.34176,11.79514 -0.42375,34.70693 -5.25084,4.13721 v 23.982 c 6.02237,-5.15429 10.0372,-12.37205 13.48703,-20.34811 0,0 -2.52817,-5.02532 -1.54719,-13.59917 0.94002,-8.21589 10.51563,-36.68562 10.51563,-36.68562 z m -27.49858,51.77875 v 24.0099 c 0.95627,0.72722 1.96034,1.40548 3.0179,2.02985 1.00442,-0.593 1.9609,-1.23433 2.87373,-1.92029 v -24.00577 l -2.87373,2.26394 z" /></g><g
     id="g38"
     transform="matrix(1.5315181,0,0,1.5315181,-107.43101,-205.00194)"><path
       id="path36"
       style="display:inline;fill:url(#linearGradient4);stroke-width:0.15115"
       d="m 105.22496,152.44011 -5.549874,4.37296 v 8.50433 l 5.549874,4.37296 5.55022,-4.37296 v -8.50433 z" /></g></svg>
