<?xml version="1.0" encoding="UTF-8" standalone="no"?>
<!-- Created with Inkscape (http://www.inkscape.org/) -->

<svg
   width="52.424198mm"
   height="52.424191mm"
   viewBox="0 0 52.424198 52.424191"
   version="1.1"
   id="svg1"
   xml:space="preserve"
   xmlns="http://www.w3.org/2000/svg"
   xmlns:svg="http://www.w3.org/2000/svg"><defs
     id="defs1" /><g
     id="layer3"
     style="display:inline;opacity:1;fill:#d4a120;fill-opacity:1"
     transform="matrix(0.93556511,0,0,0.9457817,-80.939107,-114.29741)"><path
       id="path17"
       style="display:inline;fill:#c19a29;fill-opacity:1;stroke-width:0.504384"
       d="m 114.53072,120.84968 a 28.017372,27.71472 0 0 0 -28.01712,27.71446 28.017372,27.71472 0 0 0 28.01712,27.71502 28.017372,27.71472 0 0 0 28.01767,-27.71502 28.017372,27.71472 0 0 0 -28.01767,-27.71446 z m 0,7.09649 a 20.843018,20.617865 0 0 1 20.84312,20.61797 20.843018,20.617865 0 0 1 -20.84312,20.61798 20.843018,20.617865 0 0 1 -20.842578,-20.61798 20.843018,20.617865 0 0 1 20.842578,-20.61797 z" /></g></svg>
