<?xml version="1.0" encoding="UTF-8" standalone="no"?>
<!-- Created with Inkscape (http://www.inkscape.org/) -->

<svg
   width="53.841675mm"
   height="77.818504mm"
   viewBox="0 0 53.841675 77.818504"
   version="1.1"
   id="svg1"
   xml:space="preserve"
   xmlns="http://www.w3.org/2000/svg"
   xmlns:svg="http://www.w3.org/2000/svg"><defs
     id="defs1" /><g
     id="layer2"
     style="display:inline;opacity:1"
     transform="translate(-78.150268,-119.24028)"><path
       id="path12"
       style="fill:#ffcd12;fill-opacity:1;stroke-width:0.499051"
       d="m 80.59198,119.24027 -2.441711,3.98838 c 0,0 9.575615,28.46973 10.515637,36.68562 0.980979,8.57385 -1.544609,13.59917 -1.544609,13.59917 3.422157,7.91208 7.399613,15.07787 13.341823,20.22357 v -23.97166 l -5.105633,-4.02301 -0.425814,-34.70693 z m 48.96084,0 -14.34176,11.79514 -0.42375,34.70693 -5.25084,4.13721 v 23.982 c 6.02237,-5.15429 10.0372,-12.37205 13.48703,-20.34811 0,0 -2.52817,-5.02532 -1.54719,-13.59917 0.94002,-8.21589 10.51563,-36.68562 10.51563,-36.68562 z m -27.49858,51.77875 v 24.0099 c 0.95627,0.72722 1.96034,1.40548 3.0179,2.02985 1.00442,-0.593 1.9609,-1.23433 2.87373,-1.92029 v -24.00577 l -2.87373,2.26394 z" /></g></svg>
