<svg width="56" height="56" viewBox="0 0 56 56" fill="none" xmlns="http://www.w3.org/2000/svg">
<rect width="56" height="56" fill="#010A13"/>
<path fill-rule="evenodd" clip-rule="evenodd" d="M36.0001 26.4048L40.8001 24.8048V28.0048L36.0001 32.8048H37.6001V34.4048L34.4001 36.0048V21.6048L42.4001 16.8048V21.6048L36.0001 26.4048ZM24.8001 36.0048V20.0048H31.2001V36.0048L28.0001 39.2048L24.8001 36.0048ZM18.4001 32.8048H20.0001L15.2001 28.0048V24.8048L20.0001 26.4048L13.6001 21.6048V16.8048L21.6001 21.6048V36.0048L18.4001 34.4048V32.8048Z" fill="#F6E1B5"/>
<path fill-rule="evenodd" clip-rule="evenodd" d="M39.0125 6.85718C39.0125 6.85718 39.5938 8.23427 40.4442 8.92218C41.2947 9.61008 43.1298 9.19901 43.1298 9.19901C43.1298 9.19901 41.3319 9.74693 40.9445 10.7616C40.5571 11.7763 40.7527 13.2552 40.7527 13.2552C40.7527 13.2552 40.1714 11.8781 39.3209 11.1902C38.4705 10.5023 36.6354 10.9134 36.6354 10.9134C36.6354 10.9134 38.4332 10.3654 38.8207 9.35076C39.2081 8.33609 39.0125 6.85718 39.0125 6.85718ZM18.1559 8.78285C18.1559 8.78285 19.4348 9.74691 20.5897 9.93498C21.7445 10.1231 23.2131 8.78285 23.2131 8.78285C23.2131 8.78285 21.8527 10.2296 22.0436 11.3674C22.2345 12.5051 23.2131 13.765 23.2131 13.765C23.2131 13.765 21.9342 12.801 20.7793 12.6129C19.6245 12.4248 18.1559 13.765 18.1559 13.765C18.1559 13.765 19.5163 12.3183 19.3254 11.1805C19.1345 10.0428 18.1559 8.78285 18.1559 8.78285ZM34.6052 15.5832C34.1183 14.9136 33.9666 13.7903 33.9666 13.7903C33.9666 13.7903 33.8149 14.9136 33.3281 15.5832C32.8412 16.2529 31.4124 16.3067 31.4124 16.3067C31.4124 16.3067 32.8412 16.3605 33.3281 17.0301C33.8149 17.6998 33.9666 18.8231 33.9666 18.8231C33.9666 18.8231 34.1183 17.6998 34.6052 17.0301C35.0921 16.3605 36.5209 16.3067 36.5209 16.3067C36.5209 16.3067 35.0921 16.2529 34.6052 15.5832ZM16.5975 40.9673C16.5975 40.9673 16.7492 42.0906 17.2361 42.7602C17.7229 43.4299 19.1518 43.4837 19.1518 43.4837C19.1518 43.4837 17.7229 43.5375 17.2361 44.2071C16.7492 44.8768 16.5975 46.0001 16.5975 46.0001C16.5975 46.0001 16.4458 44.8768 15.9589 44.2071C15.4721 43.5375 14.0432 43.4837 14.0432 43.4837C14.0432 43.4837 15.4721 43.4299 15.9589 42.7602C16.4458 42.0906 16.5975 40.9673 16.5975 40.9673Z" fill="#F6E1B5"/>
</svg>
